<?xml version="1.0" encoding="UTF-8"?>
<!DOCTYPE svg PUBLIC "-//W3C//DTD SVG 1.1//EN" "http://www.w3.org/Graphics/SVG/1.1/DTD/svg11.dtd">
<!-- Creator: CorelDRAW 2020 (64-Bit) -->
<svg xmlns="http://www.w3.org/2000/svg" xml:space="preserve" width="4in" height="4in" version="1.1" style="shape-rendering:geometricPrecision; text-rendering:geometricPrecision; image-rendering:optimizeQuality; fill-rule:evenodd; clip-rule:evenodd"
viewBox="0 0 4000 4000"
 xmlns:xlink="http://www.w3.org/1999/xlink"
 xmlns:xodm="http://www.corel.com/coreldraw/odm/2003">
 <defs>
  <style type="text/css">
   <![CDATA[
    .fil0 {fill:black}
    .fil1 {fill:white}
   ]]>
  </style>
 </defs>
 <g id="Layer_x0020_1">
  <metadata id="CorelCorpID_0Corel-Layer"/>
  <path class="fil0" d="M3360.55 2852.15l0.57 906.74 -912.88 2.12c7.63,-25.05 753.59,-758.35 878.52,-886.88 17.86,-18.37 11.46,-19.98 33.79,-21.98zm-2757.12 -3.45c15.19,3.57 905.46,893.35 912.74,910.52l-910.84 1.78 -1.9 -912.3zm768.5 539.93c-21.65,-12.15 -181.98,-178.34 -216.35,-212.16 -27.75,-27.3 -204.45,-190.76 -210.99,-224.61 140.5,-73.18 273.45,-148.48 427.22,-221.06l438.46 -208.89c-14.73,56.53 -75.47,159.17 -103.21,220.16 -48.17,105.91 -293.02,620.91 -335.13,646.56zm320.13 -424.7c11.39,-69.13 254.23,-515.99 275.29,-598.72 -46.11,10.83 -432.66,203.76 -490.56,229.5 -79.83,35.49 -168.63,81.21 -238.93,117.48 -67.24,34.7 -70.46,16.85 -116.4,-23.17 -18.59,-16.19 -27.35,-20.56 -48.12,-40.75 -140,-136.16 -244.47,-242.05 -342.92,-457.46 -169.12,-370 -169.06,-807.65 8.71,-1166.66 246.91,-498.62 728.96,-811.35 1351.21,-778.97 193.88,10.09 407.24,83.29 550.32,161.82 224.72,123.35 335.05,243.74 469.23,420.91 27.5,36.31 45.02,70.8 69.09,108.93 148.68,235.53 207.72,584.94 165.94,873.35 -37.81,261.07 -142.59,491.19 -297.85,682.5 -66.57,82.02 -148.44,155.39 -231.39,220.15 -126.06,98.4 -292.16,187.06 -478.23,234.42 -241.76,61.52 -400.21,56.21 -645.4,16.67zm-999.11 1026.2l2578.76 0c30.58,-17.21 72.22,-23.76 104.11,-43.38 98.21,-60.41 137.15,-155.11 137.09,-280.8l-0.02 -2803.89c0.08,-184.12 5.18,-375.84 -0.15,-559.03 -2.54,-87.61 -35.65,-157.1 -77.62,-200.95 -77.92,-81.42 -129.06,-69.06 -184.7,-91.98l-2546.79 0c-52.59,25.21 -108.24,16.04 -180.31,98.66 -44.27,50.75 -70.75,113.51 -71.68,206.26 -5.51,550.29 0.06,1126.37 0.06,1678.73l-0.07 1678.61c0.18,264.35 176.45,281.29 241.33,317.76z"/>
  <path class="fil1" d="M1902.26 1166.55c273.73,-52.1 493.59,150.08 531.55,369.04 47.51,274.04 -148.17,497.78 -369.72,533.4 -267.69,43.04 -492,-135.13 -533.12,-368.02 -49.86,-282.46 147.35,-491.8 371.29,-534.42zm-210.2 1797.39c245.19,39.54 403.65,44.85 645.4,-16.67 186.07,-47.35 352.17,-136.02 478.23,-234.42 82.95,-64.76 164.83,-138.13 231.39,-220.15 155.26,-191.31 260.04,-421.43 297.85,-682.5 41.77,-288.41 -17.27,-637.82 -165.94,-873.35 -24.07,-38.13 -41.59,-72.62 -69.09,-108.93 -134.18,-177.17 -244.51,-297.56 -469.23,-420.91 -143.08,-78.54 -356.44,-151.74 -550.32,-161.82 -622.25,-32.39 -1104.3,280.35 -1351.21,778.97 -177.77,359 -177.83,796.65 -8.71,1166.66 98.45,215.41 202.92,321.3 342.92,457.46 20.77,20.2 29.53,24.56 48.12,40.75 45.93,40.02 49.15,57.88 116.4,23.17 70.3,-36.28 159.09,-81.99 238.93,-117.48 57.9,-25.74 444.45,-218.67 490.56,-229.5 -21.06,82.74 -263.89,529.59 -275.29,598.72z"/>
  <path class="fil1" d="M3360.55 2852.15c-22.33,2 -15.93,3.61 -33.79,21.98 -124.93,128.53 -870.89,861.83 -878.52,886.88l912.88 -2.12 -0.57 -906.74z"/>
  <path class="fil1" d="M605.33 3761l910.84 -1.78c-7.29,-17.17 -897.56,-906.95 -912.74,-910.52l1.9 912.3z"/>
  <path class="fil0" d="M1934.78 1315.57c178.12,-27.83 327.48,101.15 349.76,256.64 25.7,179.48 -106.27,328.02 -252.66,348 -184.53,25.17 -330.28,-103.98 -351.51,-251.88 -26.38,-183.74 99.14,-328.5 254.42,-352.76zm-32.52 -149.02c-223.94,42.63 -421.15,251.96 -371.29,534.42 41.11,232.89 265.43,411.05 533.12,368.02 221.55,-35.62 417.22,-259.35 369.72,-533.4 -37.96,-218.96 -257.82,-421.14 -531.55,-369.04z"/>
  <path class="fil1" d="M1371.93 3388.63c42.12,-25.64 286.96,-540.65 335.13,-646.56 27.74,-60.99 88.48,-163.63 103.21,-220.16l-438.46 208.89c-153.77,72.58 -286.72,147.89 -427.22,221.06 6.54,33.85 183.24,197.31 210.99,224.61 34.37,33.81 194.7,200.01 216.35,212.16z"/>
  <path class="fil1" d="M1934.78 1315.57c-155.28,24.26 -280.8,169.02 -254.42,352.76 21.24,147.89 166.98,277.05 351.51,251.88 146.39,-19.98 278.37,-168.52 252.66,-348 -22.27,-155.49 -171.63,-284.47 -349.76,-256.64z"/>
 </g>
</svg>
